<svg id="bluesky" viewBox="0 0 24 24" fill="none" xmlns="http://www.w3.org/2000/svg">
<path d="M6.90178 5.12025C8.96531 6.67472 11.1852 9.82613 12 11.5173V15.9841C12 15.889 11.9634 15.9965 11.8847 16.2279C11.4594 17.4812 9.79837 22.3724 6.00009 18.4622C4.00012 16.4034 4.926 14.3447 8.5665 13.7231C6.48384 14.0786 4.14244 13.4911 3.50006 11.1877C3.315 10.525 3 6.44353 3 5.89228C3 3.13097 5.41284 3.99891 6.90178 5.12025ZM17.0982 5.12025C15.0347 6.67472 12.8148 9.82613 12 11.5173V15.9841C12 15.889 12.0366 15.9965 12.1153 16.2279C12.5406 17.4812 14.2016 22.3724 17.9999 18.4622C19.9999 16.4034 19.074 14.3447 15.4335 13.7231C17.5162 14.0786 19.8576 13.4911 20.4999 11.1877C20.685 10.525 21 6.44353 21 5.89228C21 3.13097 18.5874 3.99891 17.0982 5.12025Z" fill="currentColor"/>
</svg>
